<svg class="svg-icon" style="width: 1em;height: 1em;vertical-align: middle;fill: currentColor;overflow: hidden;" viewBox="0 0 1024 1024" version="1.1" xmlns="http://www.w3.org/2000/svg"><path d="M764.839506 493.833481a18.962963 18.962963 0 0 1 18.962963 18.962963c0 150.110815-121.691654 271.802469-271.802469 271.80247a270.980741 270.980741 0 0 1-193.78884-81.224692 18.962963 18.962963 0 1 1 27.053828-26.586074A233.067457 233.067457 0 0 0 512 746.672988c129.163062 0 233.876543-104.713481 233.876543-233.876544a18.962963 18.962963 0 0 1 18.962963-18.962963z m-252.839506-252.839506a271.018667 271.018667 0 0 1 195.824198 83.297976 18.962963 18.962963 0 0 1-27.331951 26.295308A233.092741 233.092741 0 0 0 512 278.919901c-129.163062 0-233.876543 104.713481-233.876543 233.876543a18.962963 18.962963 0 1 1-37.925926 0c0-150.110815 121.691654-271.802469 271.802469-271.802469z" fill="#6F6D6D" /><path d="M630.126617 204.509235a18.962963 18.962963 0 0 1 24.474864 7.168l0.884939 1.60553 56.180938 115.636149a18.962963 18.962963 0 0 1-33.248395 18.17916l-0.872296-1.605531-56.180939-115.636148a18.962963 18.962963 0 0 1 8.760889-25.34716zM321.28316 671.238321a18.962963 18.962963 0 0 1 24.399013 7.408198l0.847012 1.618172 56.19358 118.708149a18.962963 18.962963 0 0 1-33.425382 17.837827l-0.859655-1.605531-56.180938-118.708148a18.962963 18.962963 0 0 1 9.02637-25.258667z" fill="#6F6D6D" /><path d="M561.809383 403.784691a18.962963 18.962963 0 0 1 28.115753 25.372445l-1.302124 1.441185L512 507.196049l-76.61037-76.61037a18.962963 18.962963 0 0 1 25.372444-28.128395l1.441185 1.302123L512 453.594074l49.809383-49.809383z" fill="#6F6D6D" /><path d="M569.457778 472.936296a18.962963 18.962963 0 0 1 1.833086 37.82479l-1.833086 0.088494H448.790123a18.962963 18.962963 0 0 1-1.820444-37.837432l1.820444-0.088494h120.667655zM569.457778 541.88563a18.962963 18.962963 0 0 1 1.833086 37.837432l-1.833086 0.088494H448.790123a18.962963 18.962963 0 0 1-1.820444-37.837433l1.820444-0.088493h120.667655z" fill="#6F6D6D" /><path d="M512 461.432099a18.962963 18.962963 0 0 1 18.874469 17.142518L530.962963 480.395062v172.385975a18.962963 18.962963 0 0 1-37.837432 1.833086l-0.088494-1.833086V480.395062a18.962963 18.962963 0 0 1 18.962963-18.962963z" fill="#6F6D6D" /></svg>