<svg xmlns="http://www.w3.org/2000/svg" viewBox="0 0 192 192" width="192" height="192">
  <defs>
    <linearGradient id="grad" x1="100%" y1="0%" x2="0%" y2="100%">
      <stop offset="0%" style="stop-color:#4db8ff;stop-opacity:1" />
      <stop offset="100%" style="stop-color:#0284c7;stop-opacity:1" />
    </linearGradient>
  </defs>
  <rect width="192" height="192" rx="24" fill="url(#grad)"/>

  <!-- Circular arrows (conversion/exchange) - scaled and centered from 1024 viewBox -->
  <g fill="white" transform="translate(96, 96) scale(0.1875) translate(-512, -512)">
    <!-- Top-right circular arc -->
    <path d="M764.839506 493.833481a18.962963 18.962963 0 0 1 18.962963 18.962963c0 150.110815-121.691654 271.802469-271.802469 271.80247a270.980741 270.980741 0 0 1-193.78884-81.224692 18.962963 18.962963 0 1 1 27.053828-26.586074A233.067457 233.067457 0 0 0 512 746.672988c129.163062 0 233.876543-104.713481 233.876543-233.876544a18.962963 18.962963 0 0 1 18.962963-18.962963z"/>
    <!-- Bottom-left circular arc -->
    <path d="M512 240.993975a271.018667 271.018667 0 0 1 195.824198 83.297976 18.962963 18.962963 0 0 1-27.331951 26.295308A233.092741 233.092741 0 0 0 512 278.919901c-129.163062 0-233.876543 104.713481-233.876543 233.876543a18.962963 18.962963 0 1 1-37.925926 0c0-150.110815 121.691654-271.802469 271.802469-271.802469z"/>
    <!-- Arrow heads -->
    <path d="M630.126617 204.509235a18.962963 18.962963 0 0 1 24.474864 7.168l0.884939 1.60553 56.180938 115.636149a18.962963 18.962963 0 0 1-33.248395 18.17916l-0.872296-1.605531-56.180939-115.636148a18.962963 18.962963 0 0 1 8.760889-25.34716z"/>
    <path d="M321.28316 671.238321a18.962963 18.962963 0 0 1 24.399013 7.408198l0.847012 1.618172 56.19358 118.708149a18.962963 18.962963 0 0 1-33.425382 17.837827l-0.859655-1.605531-56.180938-118.708148a18.962963 18.962963 0 0 1 9.02637-25.258667z"/>
  </g>

  <!-- Dollar sign (bold, rounded style) -->
  <g fill="white" transform="scale(0.375) translate(0,0)">
    <path d="M256 160c-8.8 0-16 7.2-16 16v8c-22.1 3.7-40 20.8-40 44 0 26.5 21.5 48 48 48h16c8.8 0 16 7.2 16 16s-7.2 16-16 16h-40c-8.8 0-16 7.2-16 16s7.2 16 16 16h24v8c0 8.8 7.2 16 16 16s16-7.2 16-16v-8c22.1-3.7 40-20.8 40-44 0-26.5-21.5-48-48-48h-16c-8.8 0-16-7.2-16-16s7.2-16 16-16h40c8.8 0 16-7.2 16-16s-7.2-16-16-16h-24v-8c0-8.8-7.2-16-16-16z"/>
  </g>
</svg>
